PathFileType	4	(X/Y/Z)	./resultDataOpenSim/trcMotMarkerGrf/sub09/qtm-15-03.trc
DataRate	CameraRate	NumFrames	NumMarkers	Units	OrigDataRate	OrigDataStartFrame	OrigNumFrames
250.000000	250.000000	11	24	m	250.000000	1	494
Frame#	Time	L.Toe.Tip			R.Toe.Tip			L.Ankle.Lat			R.Ankle.Lat			L.Ankle.Med			R.Ankle.Med			L.Heel			R.Heel			L.Knee.Lat			R.Knee.Lat			L.Knee.Med			R.Knee.Med			L.Thigh.Upper			R.Thigh.Upper			L.ASIS			R.ASIS			V.Sacral			L.Acromium			R.Acromium			C7			L.Elbow			R.Elbow			L.Wrist.Lat			R.Wrist.Lat
		X1	Y1	Z1	X2	Y2	Z2	X3	Y3	Z3	X4	Y4	Z4	X5	Y5	Z5	X6	Y6	Z6	X7	Y7	Z7	X8	Y8	Z8	X9	Y9	Z9	X10	Y10	Z10	X11	Y11	Z11	X12	Y12	Z12	X13	Y13	Z13	X14	Y14	Z14	X15	Y15	Z15	X16	Y16	Z16	X17	Y17	Z17	X18	Y18	Z18	X19	Y19	Z19	X20	Y20	Z20	X21	Y21	Z21	X22	Y22	Z22	X23	Y23	Z23	X24	Y24	Z24

1	0	-1.5474286	0.035943152	-0.087619119	-0.86787896	0.12653816	0.094821801	-1.6929276	0.079220232	-0.11222123	-1.0137071	0.079158243	0.1213482	-1.6642665	0.093221936	-0.019008588	-1.0103005	0.12261156	0.031638053	NaN	NaN	NaN	-1.0550848	0.02893136	0.068730928	-1.5337662	0.46812328	-0.16488153	-1.1549566	0.51746673	0.14839321	-1.5323643	0.46638541	-0.038554474	-1.1507882	0.49561142	0.021190555	-1.4105902	0.87034513	-0.19950321	-1.3706351	0.86029604	0.17072289	-1.3027033	0.94236685	-0.14873091	-1.2889118	0.94626238	0.09208715	-1.4606377	1.0033727	-0.014243651	-1.2627287	1.3967805	-0.17335977	-1.3060545	1.403836	0.1521224	-1.3440646	1.4534976	-0.012073891	-1.3992499	1.0520339	-0.26478959	-1.4815523	1.0864622	0.22750869	-1.1807558	0.88862059	-0.24426531	-1.3809561	0.84330604	0.2955918
2	0.004	-1.5473911	0.035882176	-0.087602518	-0.85387598	0.129957	0.095374531	-1.6926125	0.0801645	-0.11192681	-0.99836937	0.080464886	0.12182241	-1.6634948	0.093919041	-0.018813711	-0.996159	0.1238473	0.031952605	NaN	NaN	NaN	-1.0395338	0.02937062	0.068988072	-1.5300724	0.46763274	-0.16466658	-1.1474602	0.51605422	0.14880982	-1.5281503	0.46610532	-0.038361687	-1.1438453	0.49391729	0.021340211	-1.4049322	0.8686459	-0.20000065	-1.3636407	0.85824744	0.17082838	-1.296813	0.94067385	-0.14876945	-1.2821162	0.94454232	0.092169255	-1.4540055	1.0015751	-0.013579316	-1.2564441	1.3951772	-0.17297853	-1.2997769	1.4020222	0.15255247	-1.3379521	1.4518421	-0.011800062	-1.3924514	1.0502242	-0.26474666	-1.4753993	1.0844532	0.22770516	-1.1734343	0.88744756	-0.24354078	-1.3743999	0.84149202	0.29638776
3	0.008	-1.5473435	0.035825786	-0.087588936	-0.84027423	0.13329712	0.095874141	-1.6922701	0.081086312	-0.11166833	-0.98268297	0.08201106	0.12253791	-1.6629287	0.094566604	-0.01853293	-0.98235985	0.125065	0.032200358	NaN	NaN	NaN	-1.0243609	0.029839329	0.069156826	-1.5262534	0.46713959	-0.16445015	-1.1399899	0.514641	0.1492143	-1.5240314	0.46571638	-0.038140649	-1.1368754	0.49225027	0.021498527	-1.3992039	0.86704183	-0.20022418	-1.3565688	0.85620047	0.17095287	-1.2908988	0.93900186	-0.14882624	-1.2752822	0.94280741	0.092235109	-1.447386	0.99977696	-0.01292156	-1.2501391	1.3935723	-0.17255017	-1.2935257	1.4002136	0.15299417	-1.3318464	1.4502002	-0.011545767	-1.3856634	1.0483732	-0.26471071	-1.4693883	1.0825948	0.22795707	-1.1661514	0.88625844	-0.24281892	-1.3677918	0.839682	0.29718181
4	0.012	-1.5472815	0.035776617	-0.08757839	-0.82727148	0.13645555	0.096293051	-1.6918752	0.082002147	-0.11146446	-0.96704488	0.083680148	0.12337664	-1.6629181	0.095076364	-0.018039125	-0.96911259	0.12623945	0.032342285	NaN	NaN	NaN	-1.0097978	0.03032386	0.069182752	-1.5222285	0.46663921	-0.16424295	-1.1324999	0.51325787	0.14962001	-1.519925	0.46518802	-0.037892264	-1.1298124	0.49066073	0.021680226	-1.3933961	0.8655461	-0.20010944	-1.34937	0.85415764	0.17110099	-1.2848896	0.93736044	-0.14889998	-1.2683712	0.94106926	0.092286755	-1.440789	0.99798251	-0.012278704	-1.2437842	1.3919766	-0.1720679	-1.2872662	1.398412	0.15344879	-1.3257231	1.4485654	-0.011301557	-1.3788901	1.0465088	-0.2646982	-1.4633996	1.0808607	0.22826621	-1.1589201	0.88503988	-0.24209359	-1.3610962	0.83788162	0.29797291
5	0.016	-1.5472051	0.035736218	-0.087571179	-0.81491076	0.13931556	0.096635822	-1.6914105	0.082963505	-0.11132194	-0.95241311	0.085079929	0.12394772	-1.6636896	0.095407743	-0.017275441	-0.95648334	0.12733478	0.032379469	NaN	NaN	NaN	-0.99595709	0.03077357	0.069043876	-1.5179771	0.46611667	-0.16405372	-1.124913	0.51195287	0.15004392	-1.5156845	0.46455931	-0.037640466	-1.122602	0.48920752	0.02189034	-1.3875466	0.86412142	-0.19974708	-1.3420493	0.85212728	0.17127469	-1.2787542	0.93575065	-0.14898168	-1.2613848	0.93935013	0.09233648	-1.4342318	0.99618687	-0.011675876	-1.2373697	1.3904087	-0.17155851	-1.2809621	1.3966222	0.15391094	-1.3195603	1.4469329	-0.011044198	-1.3721293	1.0447048	-0.26469361	-1.4571024	1.0790943	0.22858277	-1.1517465	0.88379168	-0.24135686	-1.3543149	0.83610449	0.29875461
6	0.02	-1.5471147	0.035705054	-0.087570578	-0.80318315	0.14179827	0.096917235	-1.6908829	0.084001554	-0.11125212	-0.9393446	0.085968212	0.12399322	-1.664802	0.095707649	-0.016460228	-0.94435299	0.12833364	0.032351041	NaN	NaN	NaN	-0.98288713	0.03112179	0.068729662	-1.5135135	0.4655535	-0.16388186	-1.1171702	0.51075816	0.15048808	-1.5112429	0.46387339	-0.037415732	-1.1152253	0.48792436	0.022114276	-1.3816766	0.8627349	-0.19923572	-1.3346333	0.85011854	0.17148046	-1.2725266	0.93417281	-0.14906636	-1.2543589	0.93765801	0.092392291	-1.4277175	0.99437789	-0.011142744	-1.2309064	1.388877	-0.17104332	-1.2746108	1.3948553	0.15438232	-1.3133439	1.4453129	-0.010744023	-1.365366	1.0429796	-0.26466087	-1.4502806	1.0771979	0.2288573	-1.1446304	0.88252299	-0.2406047	-1.3474746	0.83435549	0.29952265
7	0.024	-1.5470111	0.035682484	-0.087581509	-0.79209581	0.14388009	0.097135476	-1.6903048	0.085110187	-0.11127645	-0.92768814	0.086423786	0.12353088	-1.6653335	0.096229813	-0.015988705	-0.93260718	0.12922089	0.032298009	NaN	NaN	NaN	-0.9706276	0.031302118	0.068243844	-1.5088671	0.46494854	-0.16372538	-1.1092809	0.50967528	0.15094191	-1.5065883	0.46315164	-0.037240021	-1.1076879	0.48681648	0.02233256	-1.3757798	0.86137188	-0.19863646	-1.3271519	0.84814395	0.17172529	-1.266251	0.93263348	-0.14914622	-1.2473363	0.93599467	0.092456456	-1.4212433	0.99256044	-0.010689682	-1.2244179	1.3873795	-0.17052289	-1.2682263	1.3931264	0.15487182	-1.3070654	1.4437227	-0.010364269	-1.3586197	1.0412752	-0.26465134	-1.4430957	1.0752091	0.22909196	-1.1375742	0.88124214	-0.23983555	-1.3406141	0.8326274	0.30027641
8	0.028	-1.5468962	0.035668598	-0.087608795	-0.78166464	0.14553732	0.097280675	-1.6896521	0.0862901	-0.11141661	-0.91708136	0.08662778	0.12270867	-1.6647991	0.097087642	-0.016054062	-0.92143369	0.12992338	0.032214818	NaN	NaN	NaN	-0.95921497	0.031279789	0.067629173	-1.5040616	0.46431424	-0.16357796	-1.1013433	0.50867859	0.15137397	-1.5017076	0.46240836	-0.037113848	-1.0999964	0.48587781	0.022539646	-1.3698375	0.86003612	-0.19799051	-1.3196297	0.84621568	0.17201599	-1.2599466	0.93113914	-0.14920385	-1.24034	0.93436579	0.092528002	-1.4148001	0.99076295	-0.010289846	-1.2179192	1.3859124	-0.16998726	-1.2618161	1.3914433	0.15538477	-1.3007229	1.4421726	-0.0098757888	-1.3519342	1.0395413	-0.26478829	-1.4359367	1.0732189	0.22934054	-1.1305814	0.87995485	-0.23904729	-1.333758	0.83091978	0.30100945
9	0.032	-1.54677	0.035664414	-0.087656124	-0.77188398	0.14669364	0.097358817	-1.6888987	0.087553017	-0.11167714	-0.90728454	0.08665087	0.12175007	-1.6634406	0.09820818	-0.016545324	-0.91116312	0.13033727	0.032067476	NaN	NaN	NaN	-0.94865142	0.031065301	0.066985287	-1.4991068	0.46365945	-0.16343489	-1.0935323	0.50772455	0.15172376	-1.4966236	0.46164865	-0.037019959	-1.0921571	0.4850958	0.022744437	-1.363832	0.85874312	-0.19732738	-1.3120842	0.84434081	0.17235772	-1.2536149	0.9296891	-0.14921899	-1.2333626	0.93278115	0.092610599	-1.4083348	0.98903067	-0.0098408156	-1.2114056	1.3844781	-0.16942762	-1.2553824	1.3898031	0.15591788	-1.2943222	1.4406518	-0.0092756538	-1.3452924	1.0378128	-0.26505753	-1.4290398	1.0712916	0.22965634	-1.1236497	0.87866794	-0.23823593	-1.3268988	0.82924409	0.30171671
10	0.036	-1.5466293	0.035670047	-0.087725265	-0.76273692	0.14726337	0.097383638	-1.6880816	0.088898476	-0.11203827	-0.89816772	0.086449778	0.12091103	-1.6617136	0.099487227	-0.017267629	-0.90185718	0.13040898	0.031854617	NaN	NaN	NaN	-0.93888156	0.030687367	0.066432335	-1.4940043	0.46299159	-0.16331034	-1.0860571	0.50675419	0.15194071	-1.491411	0.46085457	-0.036937823	-1.0841752	0.48444377	0.022954707	-1.357752	0.85750087	-0.19666295	-1.3045286	0.8425288	0.17275306	-1.2472409	0.92827964	-0.14918388	-1.2263738	0.93125258	0.092723207	-1.4017287	0.98741223	-0.0091503101	-1.2048673	1.3830854	-0.16884254	-1.2489339	1.3882022	0.15646953	-1.2878782	1.4391235	-0.0086031272	-1.3386119	1.0361849	-0.2652561	-1.4223586	1.0694496	0.23005411	-1.1167756	0.877387	-0.23739885	-1.3200089	0.82761068	0.30240625
11	0.04	-1.5464698	0.035684143	-0.087815602	-0.75421665	0.1472122	0.097353545	-1.6872806	0.090321754	-0.11247513	-0.88968454	0.085971134	0.120324	-1.659907	0.10086983	-0.018091561	-0.89333468	0.13013455	0.0316118	NaN	NaN	NaN	-0.92982044	0.03018718	0.065985442	-1.4887609	0.46232209	-0.16321765	-1.0790253	0.50571776	0.15205173	-1.4861257	0.46000166	-0.036860085	-1.0760181	0.48389006	0.023168357	-1.3515926	0.85630492	-0.19601434	-1.2969785	0.8407973	0.17320372	-1.2407944	0.92691053	-0.14910469	-1.2193539	0.92978923	0.092890445	-1.3948655	0.98594339	-0.0080647889	-1.1983014	1.3817452	-0.16823254	-1.2424799	1.3866422	0.15704791	-1.281412	1.4375464	-0.0079275181	-1.3318282	1.0347228	-0.26519635	-1.4157368	1.0676866	0.23051939	-1.1099623	0.87611479	-0.23654039	-1.3130774	0.82602368	0.30309171
